<?xml version="1.0" standalone="no"?>
<!DOCTYPE svg PUBLIC "-//W3C//DTD SVG 20010904//EN"
 "http://www.w3.org/TR/2001/REC-SVG-20010904/DTD/svg10.dtd">
<svg version="1.0" xmlns="http://www.w3.org/2000/svg"
 width="500.000000pt" height="500.000000pt" viewBox="0 0 500.000000 500.000000"
 preserveAspectRatio="xMidYMid meet">
<metadata>
Created by potrace 1.11, written by Peter Selinger 2001-2013
</metadata>
<g transform="translate(0.000000,500.000000) scale(0.100000,-0.100000)"
fill="#000000" stroke="none">
<path d="M1418 4366 l-1077 -621 0 -1245 0 -1245 1077 -621 1077 -621 3 1243
c1 684 1 1804 0 2488 l-3 1243 -1077 -621z m700 -2740 l-3 -874 -160 93 -160
92 -5 1171 -5 1172 -180 -511 c-99 -281 -182 -512 -186 -514 -3 -2 -85 134
-182 303 l-177 306 0 -748 c0 -708 -1 -748 -17 -741 -10 3 -84 45 -165 92
l-148 85 0 948 0 948 141 82 c77 45 142 80 144 78 1 -2 76 -130 165 -286 90
-155 165 -281 167 -278 2 2 79 218 172 480 l167 477 215 123 214 124 3 -874
c1 -481 1 -1267 0 -1748z"/>
<path d="M2510 2501 c0 -1370 2 -2491 5 -2491 2 0 488 279 1080 621 l1075 621
-2 1250 -3 1249 -1065 615 c-586 339 -1071 618 -1077 621 -10 4 -13 -497 -13
-2486z m1081 1342 l689 -398 0 -945 0 -945 -689 -398 c-378 -218 -691 -397
-695 -397 -3 0 -6 783 -6 1740 0 957 3 1740 6 1740 4 0 317 -179 695 -397z"/>
<path d="M3220 2500 l0 -1181 58 33 c32 18 199 114 370 213 l312 180 0 755 0
755 -337 195 c-186 107 -353 203 -370 213 l-33 19 0 -1182z"/>
</g>
</svg>
